<svg width="32" height="32" viewBox="0 0 32 32" fill="none" xmlns="http://www.w3.org/2000/svg">
<g id="chevron_right_24px">
<path id="icon/navigation/chevron_right_24px" d="M19.0604 24L20.9404 22.12L14.8338 16L20.9404 9.88L19.0604 8L11.0604 16L19.0604 24Z" fill="#FF002E"/>
<path d="M16 0.999999C24.2843 0.999999 31 7.71573 31 16L33 16C33 6.61116 25.3888 -1 16 -1L16 0.999999ZM1 16C1 7.71573 7.71573 0.999998 16 0.999999L16 -1C6.61116 -1 -0.999998 6.61116 -0.999999 16L1 16ZM16 31C7.71573 31 1 24.2843 1 16L-0.999999 16C-0.999999 25.3888 6.61116 33 16 33L16 31ZM16 33C25.3888 33 33 25.3888 33 16L31 16C31 24.2843 24.2843 31 16 31L16 33Z" fill="#FF002E"/>
</g>
</svg>
