<svg width="30" height="34" viewBox="0 0 30 34" fill="none" xmlns="http://www.w3.org/2000/svg">
<path fill-rule="evenodd" clip-rule="evenodd" d="M26.6667 33.6667C28.5 33.6667 30 32.1667 30 30.3333V7.00001C30 5.16668 28.5 3.66668 26.6667 3.66668H25V0.333344H21.6667V3.66668H8.33333V0.333344H5V3.66668H3.33333C1.48333 3.66668 0.0166667 5.16668 0.0166667 7.00001L0 30.3333C0 32.1667 1.48333 33.6667 3.33333 33.6667H26.6667ZM10 18.6667V15.3333H6.66667V18.6667H10ZM3.33333 10.3333H26.6667V7.00001H3.33333V10.3333ZM26.6667 13.6667V30.3333H3.33333V13.6667H26.6667ZM23.3333 18.6667V15.3333H20V18.6667H23.3333ZM16.6667 18.6667H13.3333V15.3333H16.6667V18.6667Z" fill="#FF002E"/>
</svg>
