<svg width="24" height="34" viewBox="0 0 24 34" fill="none" xmlns="http://www.w3.org/2000/svg">
<path fill-rule="evenodd" clip-rule="evenodd" d="M12 0.333344C5.55001 0.333344 0.333344 5.55001 0.333344 12C0.333344 20.75 12 33.6667 12 33.6667C12 33.6667 23.6667 20.75 23.6667 12C23.6667 5.55001 18.45 0.333344 12 0.333344ZM3.66668 12C3.66668 7.40001 7.40001 3.66668 12 3.66668C16.6 3.66668 20.3333 7.40001 20.3333 12C20.3333 16.8 15.5333 23.9833 12 28.4667C8.53334 24.0167 3.66668 16.75 3.66668 12ZM7.83334 12C7.83334 9.69882 9.69882 7.83334 12 7.83334C13.4886 7.83334 14.8641 8.62751 15.6085 9.91668C16.3528 11.2058 16.3528 12.7942 15.6085 14.0833C14.8641 15.3725 13.4886 16.1667 12 16.1667C9.69882 16.1667 7.83334 14.3012 7.83334 12Z" fill="#FF002E"/>
</svg>
