<svg width="24" height="24" viewBox="0 0 24 24" fill="none" xmlns="http://www.w3.org/2000/svg">
<path d="M12 24C18.6274 24 24 18.6274 24 12C24 5.3726 18.6274 0 12 0C5.3726 0 0 5.3726 0 12C0 18.6274 5.3726 24 12 24Z" fill="#FF002E"/>
<path d="M4.4691 12.587C5.87189 11.8143 7.43779 11.1694 8.90089 10.5212C11.418 9.4595 13.9451 8.4162 16.4977 7.4449C16.9943 7.2794 17.8867 7.11755 17.9742 7.85355C17.9263 8.89535 17.7292 9.93105 17.594 10.9667C17.2508 13.2443 16.8542 15.5141 16.4675 17.7842C16.3342 18.5404 15.387 18.9318 14.7809 18.4479C13.3243 17.464 11.8565 16.4897 10.4185 15.483C9.94744 15.0044 10.3842 14.317 10.8049 13.9752C12.0046 12.7929 13.2769 11.7884 14.4139 10.545C14.7206 9.8044 13.8144 10.4286 13.5155 10.6198C11.8731 11.7516 10.2709 12.9525 8.53934 13.9472C7.65484 14.4341 6.62394 14.018 5.73984 13.7463C4.94713 13.4181 3.78552 13.0875 4.46902 12.587L4.4691 12.587Z" fill="#ECECEC"/>
</svg>
